<?xml version="1.0"?>
<svg xmlns="http://www.w3.org/2000/svg" height="512px" viewBox="0 -84 512.002 512" width="512px" class=""><g><path d="m414.117188 297.074219c-12.261719 6.082031-25.757813 9.265625-39.53125 9.265625-13.773438 0-27.269532-3.183594-39.527344-9.265625-12.261719 6.082031-25.757813 9.265625-39.53125 9.265625-13.773438 0-27.269532-3.183594-39.527344-9.265625-12.261719 6.082031-25.757812 9.265625-39.53125 9.265625s-27.269531-3.183594-39.527344-9.265625c-12.261718 6.082031-25.757812 9.265625-39.53125 9.265625-13.773437 0-27.269531-3.183594-39.527344-9.265625-12.261718 6.082031-25.753906 9.265625-39.53125 9.265625-8.019531 0-15.796874-1.074219-23.195312-3.070313l12.5625 41.097657h419.101562l12.824219-41.902344c-8.230469 2.515625-16.960937 3.875-26 3.875-13.773437 0-27.269531-3.183594-39.527343-9.265625zm0 0" data-original="#000000" class="active-path" data-old_color="#000000" fill="#FCFBFB"/><path d="m207.117188 72.117188c-35.964844 3.976562-69.359376 12.320312-96.988282 24.445312-34.707031 15.234375-58.765625 36.222656-67.746094 59.097656l-2.28125 5.820313-5.699218 2.570312c-20.898438 9.425781-34.402344 30.3125-34.402344 53.214844 0 32.179687 26.179688 58.355469 58.355469 58.355469 11.089843 0 21.910156-3.152344 31.289062-9.113282l8.238281-5.238281 8.238282 5.238281c9.382812 5.960938 20.203125 9.113282 31.292968 9.113282 11.089844 0 21.910157-3.152344 31.289063-9.113282l8.238281-5.238281 8.242188 5.238281c9.378906 5.960938 20.199218 9.113282 31.289062 9.113282s21.910156-3.152344 31.289063-9.113282l8.238281-5.238281 8.238281 5.238281c9.382813 5.960938 20.203125 9.113282 31.292969 9.113282s21.910156-3.152344 31.289062-9.113282l8.238282-5.238281 8.238281 5.238281c9.382813 5.960938 20.203125 9.113282 31.292969 9.113282s21.90625-3.152344 31.289062-9.113282l8.238282-5.238281 8.238281 5.238281c9.382812 5.960938 20.203125 9.113282 31.292969 9.113282 32.175781 0 58.355468-26.175782 58.355468-58.355469 0-22.902344-13.507812-43.789063-34.402344-53.214844l-5.699218-2.570312-2.285156-5.820313c-8.976563-22.875-33.039063-43.863281-67.746094-59.097656-27.628906-12.125-61.019532-20.46875-96.984375-24.445312 2.429687-6.109376 3.730469-12.703126 3.730469-19.5 0-3.808594-.414063-7.523438-1.1875-11.105469-5.113282-23.695313-26.222657-41.511719-51.425782-41.511719-25.207031 0-46.316406 17.816406-51.429687 41.511719-.773438 3.582031-1.1875 7.296875-1.1875 11.105469-.003907 6.796874 1.296875 13.390624 3.730469 19.5zm-3.566407 87.777343c-8.644531 0-15.042969-7.066406-15.417969-15.417969-.371093-8.328124 7.355469-15.417968 15.417969-15.417968 8.644531 0 15.042969 7.0625 15.417969 15.417968.371094 8.324219-7.351562 15.417969-15.417969 15.417969zm53.445313-20.558593c-8.640625 0-15.042969-7.0625-15.417969-15.417969-.371094-8.324219 7.355469-15.414063 15.417969-15.414063 8.644531 0 15.042968 7.0625 15.417968 15.414063.371094 8.324219-7.351562 15.417969-15.417968 15.417969zm66.871094 5.140624c.375 8.324219-7.351563 15.417969-15.417969 15.417969-8.640625 0-15.042969-7.066406-15.414063-15.417969-.375-8.328124 7.351563-15.417968 15.414063-15.417968 8.644531 0 15.042969 7.0625 15.417969 15.417968zm0 0" data-original="#000000" class="active-path" data-old_color="#000000" fill="#FCFBFB"/></g> </svg>
