<?xml version="1.0"?>
<svg xmlns="http://www.w3.org/2000/svg" height="512px" viewBox="0 -56 447.43228 447" width="512px" class=""><g><path d="m443.039062 176.214844 3.203126-16h-27.816407l-24 16zm0 0" data-original="#000000" class="active-path" data-old_color="#000000" fill="#FCFBFB"/><path d="m29.578125 160.214844h-27.816406l3.199219 16h48.617187zm0 0" data-original="#000000" class="active-path" data-old_color="#000000" fill="#FCFBFB"/><path d="m416 72.214844c-.019531-19-13.386719-35.375-32-39.199219v111.199219h32zm0 0" data-original="#000000" class="active-path" data-old_color="#000000" fill="#FCFBFB"/><path d="m8.703125 85.351562c8.5625 2.878907 15.277344 9.601563 18.152344 18.160157l1.457031 4.335937c1.273438 3.796875 4.253906 6.777344 8.046875 8.058594l4.335937 1.445312c8.566407 2.871094 15.292969 9.59375 18.160157 18.160157l1.457031 4.335937c.449219 1.363282 1.128906 2.636719 2.007812 3.769532l-.800781.597656h63.34375l-1.207031-3.628906c-1.273438-3.796876-4.253906-6.777344-8.046875-8.058594l-4.335937-1.445313c-8.566407-2.871093-15.292969-9.59375-18.160157-18.160156l-1.457031-4.335937c-1.273438-3.796876-4.253906-6.777344-8.046875-8.058594-11.726563-3.910156-19.625-14.886719-19.609375-27.246094-.03125-22.066406 8.316406-43.316406 23.351562-59.464844-.890624-1.554687-1.632812-3.191406-2.214843-4.886718-1.726563-5.203126-6.589844-8.714844-12.074219-8.714844-19.058594-.050782-37.347656 7.527344-50.789062 21.042968l-1.21875 1.222657c-13.523438 13.4375-21.1093755 31.734375-21.054688 50.800781-.00390625 5.476562 3.503906 10.34375 8.703125 12.070312zm55.296875 26.863282h16v16h-16zm-40-72h16v16h-16zm0 0" data-original="#000000" class="active-path" data-old_color="#000000" fill="#FCFBFB"/><path d="m88.703125 85.351562c8.5625 2.878907 15.277344 9.601563 18.152344 18.160157l1.457031 4.335937c1.273438 3.796875 4.253906 6.777344 8.046875 8.058594l4.335937 1.445312c8.566407 2.871094 15.292969 9.59375 18.160157 18.160157l1.457031 4.335937c.578125 1.625 1.488281 3.113282 2.671875 4.367188h153.992187c-1.625-2.230469-2.917968-4.6875-3.832031-7.292969l-1.457031-4.335937c-1.273438-3.796876-4.253906-6.777344-8.046875-8.058594l-4.335937-1.445313c-8.566407-2.871093-15.289063-9.59375-18.160157-18.160156l-1.457031-4.335937c-1.273438-3.796876-4.253906-6.777344-8.046875-8.058594l-4.335937-1.445313c-8.566407-2.871093-15.289063-9.59375-18.160157-18.160156l-1.457031-4.335937c-1.273438-3.796876-4.253906-6.777344-8.046875-8.058594l-4.335937-1.445313c-8.566407-2.871093-15.289063-9.59375-18.160157-18.160156l-1.457031-4.335937c-1.273438-3.796876-4.253906-6.777344-8.046875-8.058594l-4.335937-1.445313c-8.566407-2.871093-15.289063-9.59375-18.160157-18.160156-1.730469-5.203125-6.597656-8.710937-12.082031-8.707031-19.058594-.050782-37.347656 7.527344-50.789062 21.042968l-1.21875 1.222657c-13.523438 13.4375-21.109376 31.734375-21.054688 50.800781-.003906 5.476562 3.503906 10.34375 8.703125 12.070312zm103.296875 10.863282h16v16h-16zm-64-72h16v16h-16zm-16 40h16v16h-16zm0 0" data-original="#000000" class="active-path" data-old_color="#000000" fill="#FCFBFB"/><path d="m308.3125 131.847656c1.273438 3.796875 4.253906 6.777344 8.046875 8.058594l3.640625 1.214844v-52.90625c.007812-13.546875 4.953125-26.632813 13.914062-36.796875-4.523437-13.523438-15.933593-23.59375-29.914062-26.402344v96.433594c1.1875 1.902343 2.148438 3.9375 2.855469 6.0625zm0 0" data-original="#000000" class="active-path" data-old_color="#000000" fill="#FCFBFB"/><path d="m274.863281 95.519531 1.449219 4.328125c1.273438 3.796875 4.253906 6.777344 8.046875 8.058594l3.640625 1.214844v-60.105469c-14.796875 3.003906-26.617188 14.128906-30.503906 28.722656 8.179687 2.992188 14.566406 9.53125 17.367187 17.78125zm0 0" data-original="#000000" class="active-path" data-old_color="#000000" fill="#FCFBFB"/><path d="m224 270.601562 165.578125-110.386718h-331.152344zm0 0" data-original="#000000" class="active-path" data-old_color="#000000" fill="#FCFBFB"/><path d="m336.566406 288.214844c1.105469 7.558594 3.753906 14.808594 7.785156 21.296875l25.550782-21.296875zm0 0" data-original="#000000" class="active-path" data-old_color="#000000" fill="#FCFBFB"/><path d="m368 49.015625c-18.613281 3.824219-31.980469 20.199219-32 39.199219v56h32zm0 0" data-original="#000000" class="active-path" data-old_color="#000000" fill="#FCFBFB"/><path d="m400 335.585938c10.953125-1.570313 21.195312-6.363282 29.417969-13.769532l-29.417969-24.519531zm0 0" data-original="#000000" class="active-path" data-old_color="#000000" fill="#FCFBFB"/><path d="m414.097656 288.214844 25.550782 21.296875c4.03125-6.488281 6.679687-13.738281 7.785156-21.296875zm0 0" data-original="#000000" class="active-path" data-old_color="#000000" fill="#FCFBFB"/><path d="m384 335.585938v-38.289063l-29.414062 24.519531c8.222656 7.40625 18.460937 12.199219 29.414062 13.769532zm0 0" data-original="#000000" class="active-path" data-old_color="#000000" fill="#FCFBFB"/><path d="m427.039062 256.214844h-35.039062v-16h38.242188l3.199218-16h-41.441406v-16h44.640625l3.199219-16h-47.839844v-14.398438l-45.601562 30.398438h29.601562v16h-48v-3.71875l-29.601562 19.71875h13.601562v16h-37.601562l-45.980469 30.65625c-2.691407 1.792968-6.195313 1.792968-8.882813 0l-45.933594-30.65625h-37.601562v-16h13.601562l-29.601562-19.71875v3.71875h-48v-16h29.601562l-45.601562-30.398438v14.398438h-47.839844l3.199219 16h44.640625v16h-41.449219l3.203125 16h38.246094v16h-35.046875l3.199219 16h31.847656v16h-28.335938c3.382813 9.570312 12.417969 15.976562 22.566407 16h273.96875c-2.761719-7.699219-4.183594-15.816406-4.199219-24 0-4.417969 3.582031-8 8-8h95.839844zm-307.039062 32h-48v-16h48zm0-32h-48v-16h48zm64 32h-48v-16h48zm120 0h-40v-16h40zm72-32h-48v-16h48zm0 0" data-original="#000000" class="active-path" data-old_color="#000000" fill="#FCFBFB"/></g> </svg>
